<mxfile modified="2023-10-02T06:02:22.152Z" host="app.diagrams.net" agent="Mozilla/5.0 (Windows NT 10.0; Win64; x64; rv:109.0) Gecko/20100101 Firefox/118.0" etag="f8zzJnsbQeLstczE_jZe" version="21.7.2" type="device">
  <diagram id="Ht1M8jgEwFfnCIfOTk4-" name="Page-1">
    <mxGraphModel dx="4658" dy="2713" grid="1" gridSize="10" guides="1" tooltips="1" connect="1" arrows="1" fold="1" page="1" pageScale="1" pageWidth="1169" pageHeight="827" math="0" shadow="0">
      <root>
        <mxCell id="0" />
        <mxCell id="1" parent="0" />
        <mxCell id="5oYBcDJ9Xw2bT69MXBvV-104" value="" style="rounded=1;whiteSpace=wrap;html=1;dashed=1;" vertex="1" parent="1">
          <mxGeometry x="519" y="-34" width="300" height="170" as="geometry" />
        </mxCell>
        <mxCell id="5oYBcDJ9Xw2bT69MXBvV-103" value="" style="rounded=1;whiteSpace=wrap;html=1;dashed=1;" vertex="1" parent="1">
          <mxGeometry x="1250" y="1214" width="300" height="175.5" as="geometry" />
        </mxCell>
        <mxCell id="5oYBcDJ9Xw2bT69MXBvV-3" value="&lt;div style=&quot;font-size: 20px;&quot;&gt;Elastic Container&lt;/div&gt;&lt;div style=&quot;font-size: 20px;&quot;&gt;Registry (ECR)&lt;br style=&quot;font-size: 20px;&quot;&gt;&lt;/div&gt;" style="sketch=0;points=[[0,0,0],[0.25,0,0],[0.5,0,0],[0.75,0,0],[1,0,0],[0,1,0],[0.25,1,0],[0.5,1,0],[0.75,1,0],[1,1,0],[0,0.25,0],[0,0.5,0],[0,0.75,0],[1,0.25,0],[1,0.5,0],[1,0.75,0]];outlineConnect=0;fontColor=#232F3E;gradientColor=#F78E04;gradientDirection=north;fillColor=#D05C17;strokeColor=#ffffff;dashed=0;verticalLabelPosition=bottom;verticalAlign=top;align=center;html=1;fontSize=20;fontStyle=1;aspect=fixed;shape=mxgraph.aws4.resourceIcon;resIcon=mxgraph.aws4.ecr;" vertex="1" parent="1">
          <mxGeometry x="1300.56" y="813" width="78" height="78" as="geometry" />
        </mxCell>
        <mxCell id="5oYBcDJ9Xw2bT69MXBvV-4" value="&lt;div style=&quot;font-size: 20px;&quot;&gt;Elastic Kubernetes&amp;nbsp;&lt;/div&gt;&lt;div style=&quot;font-size: 20px;&quot;&gt;Service (EKS)&lt;/div&gt;" style="sketch=0;points=[[0,0,0],[0.25,0,0],[0.5,0,0],[0.75,0,0],[1,0,0],[0,1,0],[0.25,1,0],[0.5,1,0],[0.75,1,0],[1,1,0],[0,0.25,0],[0,0.5,0],[0,0.75,0],[1,0.25,0],[1,0.5,0],[1,0.75,0]];outlineConnect=0;fontColor=#232F3E;gradientColor=#F78E04;gradientDirection=north;fillColor=#D05C17;strokeColor=#ffffff;dashed=0;verticalLabelPosition=bottom;verticalAlign=top;align=center;html=1;fontSize=20;fontStyle=1;aspect=fixed;shape=mxgraph.aws4.resourceIcon;resIcon=mxgraph.aws4.eks_cloud;" vertex="1" parent="1">
          <mxGeometry x="587" y="-12" width="78" height="78" as="geometry" />
        </mxCell>
        <mxCell id="5oYBcDJ9Xw2bT69MXBvV-6" value="&lt;div style=&quot;font-size: 20px;&quot;&gt;Elastic Compute&amp;nbsp;&lt;/div&gt;&lt;div style=&quot;font-size: 20px;&quot;&gt;Cloud (EC2)&lt;br style=&quot;font-size: 20px;&quot;&gt;&lt;/div&gt;" style="sketch=0;points=[[0,0,0],[0.25,0,0],[0.5,0,0],[0.75,0,0],[1,0,0],[0,1,0],[0.25,1,0],[0.5,1,0],[0.75,1,0],[1,1,0],[0,0.25,0],[0,0.5,0],[0,0.75,0],[1,0.25,0],[1,0.5,0],[1,0.75,0]];outlineConnect=0;fontColor=#232F3E;gradientColor=#F78E04;gradientDirection=north;fillColor=#D05C17;strokeColor=#ffffff;dashed=0;verticalLabelPosition=bottom;verticalAlign=top;align=center;html=1;fontSize=20;fontStyle=1;aspect=fixed;shape=mxgraph.aws4.resourceIcon;resIcon=mxgraph.aws4.ec2;" vertex="1" parent="1">
          <mxGeometry x="580" y="399" width="78" height="78" as="geometry" />
        </mxCell>
        <mxCell id="5oYBcDJ9Xw2bT69MXBvV-7" value="Terraform" style="shape=image;verticalLabelPosition=bottom;labelBackgroundColor=default;verticalAlign=top;aspect=fixed;imageAspect=0;image=data:image/png,iVBORw0KGgoAAAANSUhEUgAAAOEAAADhCAMAAAAJbSJIAAAAqFBMVEX///9fQ+lAQLL6+v45ObCilPFPK+dZOuhRL+hWN+j39/x9fce3rfTp5vtUM+heQekxMa4tLa28s/XVz/ifkfF7ZuyBbe1oTuonJ6ypqdk3N7BsU+vc1/nNxveZivDl4fvHx+aHh8vW1u1/a+3h4fJLS7aFcu5kZL7Cufbt6vypnPKLee50Xuu6uuCZmdLs7PdbW7tFGue0qfRLJOciIqtkSepZWbt1dcQVUpZjAAAF8klEQVR4nO2d63baOBSFZWMwkICBMARIm0svaZOZaUtop+//ZiMZEyxbsiVjR0en5/vTH+1a8bfK7tnWhTJGEARBEARBEARBEAThP+/vXD9B17zslt9dP0O3XI7i+MX1Q3TK5ShIptfvXT9Gh3DDIEiGf+GNY2rIHQe3Y9eP0hGZYRDEQ6RxfDVEG8eToYjjCmEc84b8ozq9RTcdZUPuOMIWx6Ihj2OAK44lQxHHj5jiqDBMpyOeOCoNeRzxlFWNIaLpqDMUjjjKqt4QS1mtMuRxHFy6fsCzqTbEEMcaQwTTsdYwLas+x9HA0POyamTI4/jL2ziaGfq8lGNq6G9ZNTf0tazaGPo5Ha0MvYyjpWEax57rh7bC2jAI9hPXD21FA8MhGcKiseH4LSfH5oxi3Niwt7u5akughvvPayeGg2S4eovP66cv8yhyYyiWAJZdT47xwzoKQ2eG4r1q0ZaLks18G4ZODXmR6zCO959nYejaUJScx27iyAMYhhAMxTLHsv1ljvHDPAqhGAZJHLcdx81sG4ZwDNNljjbjeB/OwhCWYatxzAUQkqE4zdFvI46HCQjSMAhGyflx3Gy3RT9AhudPx9cJCNUwPbHSPI7lAAI0TMtqs+cZP/wsBRCkoWgATeIoT0DYhk3iqAkgVEMRR6vpqA0gXEOrsipVUH8Mzd8dqwII29CsrBYrqFeGBtPx05d1vR9kw5rpqKqg3hmKsqo7saKsoK0bvky7NtRNR6MAtmB4dz1NOjZMT6wU41g3AdszZOxrMrJztDcsrawaB7AVQ9Z7nsZdG4rpeIpjtgr6ZoaMPf09sPhrbGYo4vgu/WnVFbQbQ8be/TM0dmxoyP9VXaY/67flX2A7hmkcuzaM++lPurCKYHuGjD0PzOLoryGPo9FH1WNDEUeD6ei1IY/jr9rp6LmhwXT03bB+OvpvyON4U/VPDgbD6rKKw5BPR20csRjqpyMaQ21ZRWSoKauoDJVlFZmhIo7YDMtlFZ9hcTpiNJTLKkpDqawiNcxNR7SGr3FEbJiVVdSG6XTEbSjiuENuyNgCveEBMkRguLPddzzDcO7kMvmt3Z7cGYbb2TcXgozdPdrsyTU2jNa/3d0/vrqx2iJvZDj/74MzP8HC5qPawHC2/depH6e3HBo7WhtGa0cBlJmsTLePLQ2jucMAypjG0c5w/sNtANk4yB0DWhhtkdsYzkL3AdznD8mO+wZb5OaG0fyb+yvxvLXFw9wxoMmqdjqaGjqdgCfSXiodkr2qO0BmaOh6Ah45NO9kep2PY1z9vVomhrPIeQAzju8W0o2u8bKqARgY8grqPoAZp7cn6UbXpKKs1hpG6wsIAczIvx9KN7r007HO0PkElJHegOVDsouR+qNabQgngBmFd/xkuHo6/d5SOR2rDIFU0DylVQzpzLqyrOoNAVXQE4p1Gum+syKOWkNgAcxQrUQV4lgsqxpDABVUiXqtTbrRNS68OyoNtxAqqBLdamI8zZdVaToqDGFNQBn9emn+zLpUVsuGUCqokooV4VJZTdSGUAOYUbnmLZXV3rGsyobOVkFNqVnVly5YTh7T6Zg3hBzAjNp9izjOx1FMx5whzAkoU78zUyqrr4bgKqgSk70naTr2+vvDjZKLn8ADmGG2uxbv83H8mv6ygR7ADNP9w/a/nOetMN4h7fS7srrEYg/Y0/+/xmqXOx528F1ZXWO5jy+VVT+wPakgl1UfsD+LkeyfXT+0Fc1Pm/gCGZIhfMiQDOFDhmQIHzIkQ/iQIRnChwzJED5kSIbwIUMyhA8ZkiF8ejvbC5a+GR6PASE2tL5g6aFh7RUSBIalQ7L4DI1udHluaHCjy3tD4zh6bFhzowuDodl09NvQZDr6bijiWP1R9d9Qd6MLkSFjT1VxRGFYGUckhhVfP4DGUPv1A3gMdWUVk6E6jrgMVWUVmyHr9QvvjugMS2UVoWEhjigNpa8fQGqYK6tYDU9xxGt4jCNmw0NZxW3Iy+p0ittQlNVb14/QOU/1f4QgCIIgCIIgCIIgiD+X/wEzo5EzDuDO6gAAAABJRU5ErkJggg==;fontColor=#080808;fontStyle=1;fontSize=20;" vertex="1" parent="1">
          <mxGeometry x="130" y="190" width="78" height="78" as="geometry" />
        </mxCell>
        <mxCell id="5oYBcDJ9Xw2bT69MXBvV-10" value="Ansible" style="shape=image;verticalLabelPosition=bottom;labelBackgroundColor=default;verticalAlign=top;aspect=fixed;imageAspect=0;image=https://avatars.githubusercontent.com/u/1507452?s=200&amp;v=4;labelBorderColor=none;fontStyle=1;fontSize=20;" vertex="1" parent="1">
          <mxGeometry x="890" y="430" width="78" height="78" as="geometry" />
        </mxCell>
        <mxCell id="5oYBcDJ9Xw2bT69MXBvV-14" value="Jenkins" style="shape=image;verticalLabelPosition=bottom;labelBackgroundColor=default;verticalAlign=top;aspect=fixed;imageAspect=0;image=https://www.cyberark.com/wp-content/uploads/2018/09/jenkins-e1537966865729.png;fontStyle=1;fontSize=20;" vertex="1" parent="1">
          <mxGeometry x="1120" y="419" width="165.56" height="100" as="geometry" />
        </mxCell>
        <mxCell id="5oYBcDJ9Xw2bT69MXBvV-15" value="" style="shape=flexArrow;endArrow=classic;html=1;rounded=0;endWidth=29.80368828078525;endSize=14.96829268292683;width=7.8048780487804885;fillColor=#b1ddf0;strokeColor=#10739e;" edge="1" parent="1">
          <mxGeometry width="50" height="50" relative="1" as="geometry">
            <mxPoint x="244" y="237" as="sourcePoint" />
            <mxPoint x="500" y="237" as="targetPoint" />
          </mxGeometry>
        </mxCell>
        <mxCell id="5oYBcDJ9Xw2bT69MXBvV-18" value="" style="shape=flexArrow;endArrow=classic;html=1;rounded=0;endWidth=29.80368828078525;endSize=14.96829268292683;width=7.8048780487804885;fillColor=#b1ddf0;strokeColor=#10739e;" edge="1" parent="1">
          <mxGeometry width="50" height="50" relative="1" as="geometry">
            <mxPoint x="240" y="290" as="sourcePoint" />
            <mxPoint x="530" y="420" as="targetPoint" />
          </mxGeometry>
        </mxCell>
        <mxCell id="5oYBcDJ9Xw2bT69MXBvV-19" value="" style="shape=flexArrow;endArrow=classic;html=1;rounded=0;endWidth=29.80368828078525;endSize=14.15;width=6.666666666666667;labelBackgroundColor=#770C7A;fillColor=#b1ddf0;strokeColor=#10739e;" edge="1" parent="1">
          <mxGeometry width="50" height="50" relative="1" as="geometry">
            <mxPoint x="240" y="190" as="sourcePoint" />
            <mxPoint x="500" y="90" as="targetPoint" />
          </mxGeometry>
        </mxCell>
        <mxCell id="5oYBcDJ9Xw2bT69MXBvV-20" value="" style="shape=flexArrow;endArrow=classic;html=1;rounded=0;endWidth=29.80368828078525;endSize=14.96829268292683;width=7.8048780487804885;fillColor=#b1ddf0;strokeColor=#10739e;" edge="1" parent="1">
          <mxGeometry width="50" height="50" relative="1" as="geometry">
            <mxPoint x="700" y="470" as="sourcePoint" />
            <mxPoint x="850" y="470" as="targetPoint" />
          </mxGeometry>
        </mxCell>
        <mxCell id="5oYBcDJ9Xw2bT69MXBvV-21" value="" style="shape=flexArrow;endArrow=classic;html=1;rounded=0;endWidth=29.80368828078525;endSize=14.96829268292683;width=7.8048780487804885;fillColor=#b1ddf0;strokeColor=#10739e;" edge="1" parent="1">
          <mxGeometry width="50" height="50" relative="1" as="geometry">
            <mxPoint x="990" y="470" as="sourcePoint" />
            <mxPoint x="1140" y="470" as="targetPoint" />
          </mxGeometry>
        </mxCell>
        <mxCell id="5oYBcDJ9Xw2bT69MXBvV-22" value="&lt;span style=&quot;font-size: 20px;&quot;&gt;DevOps&lt;/span&gt; Engineer" style="points=[[0.35,0,0],[0.98,0.51,0],[1,0.71,0],[0.67,1,0],[0,0.795,0],[0,0.65,0]];verticalLabelPosition=bottom;sketch=0;html=1;verticalAlign=top;aspect=fixed;align=center;pointerEvents=1;shape=mxgraph.cisco19.user;fillColor=#001219;strokeColor=none;fontStyle=1;fontSize=20;" vertex="1" parent="1">
          <mxGeometry x="-160" y="170" width="140" height="140" as="geometry" />
        </mxCell>
        <mxCell id="5oYBcDJ9Xw2bT69MXBvV-23" value="" style="shape=flexArrow;endArrow=classic;html=1;rounded=0;endWidth=29.80368828078525;endSize=8.101204819277108;width=5.783132530120481;fillColor=#b1ddf0;strokeColor=#10739e;" edge="1" parent="1">
          <mxGeometry width="50" height="50" relative="1" as="geometry">
            <mxPoint y="240" as="sourcePoint" />
            <mxPoint x="116" y="240" as="targetPoint" />
          </mxGeometry>
        </mxCell>
        <mxCell id="5oYBcDJ9Xw2bT69MXBvV-27" value="Developer" style="shape=image;verticalLabelPosition=bottom;labelBackgroundColor=default;verticalAlign=top;aspect=fixed;imageAspect=0;image=https://cdn-icons-png.flaticon.com/512/4974/4974463.png;fontSize=20;fontStyle=1" vertex="1" parent="1">
          <mxGeometry x="-161.44" y="790" width="152" height="152" as="geometry" />
        </mxCell>
        <mxCell id="5oYBcDJ9Xw2bT69MXBvV-28" value="&lt;div&gt;GitHub&lt;/div&gt;&lt;div&gt;Application Repo&lt;br&gt;&lt;/div&gt;" style="dashed=0;outlineConnect=0;html=1;align=center;labelPosition=center;verticalLabelPosition=bottom;verticalAlign=top;shape=mxgraph.weblogos.github;fontSize=20;fontStyle=1" vertex="1" parent="1">
          <mxGeometry x="324.56" y="803.5" width="130" height="125" as="geometry" />
        </mxCell>
        <mxCell id="5oYBcDJ9Xw2bT69MXBvV-29" value="" style="shape=flexArrow;endArrow=classic;html=1;rounded=0;endWidth=29.80368828078525;endSize=15.523383084577112;width=5.572139303482587;fillColor=#bac8d3;strokeColor=#23445d;" edge="1" parent="1">
          <mxGeometry width="50" height="50" relative="1" as="geometry">
            <mxPoint x="-1.44" y="870" as="sourcePoint" />
            <mxPoint x="218.56" y="870" as="targetPoint" />
          </mxGeometry>
        </mxCell>
        <mxCell id="5oYBcDJ9Xw2bT69MXBvV-30" value="Commit Changes" style="text;html=1;align=center;verticalAlign=middle;resizable=0;points=[];autosize=1;strokeColor=none;fillColor=none;fontStyle=0;fontSize=18;" vertex="1" parent="1">
          <mxGeometry x="3.56" y="827" width="160" height="40" as="geometry" />
        </mxCell>
        <mxCell id="5oYBcDJ9Xw2bT69MXBvV-31" value="" style="shape=flexArrow;endArrow=classic;html=1;rounded=0;endWidth=29.80368828078525;endSize=15.733333333333333;width=4.166666666666667;fillColor=#bac8d3;strokeColor=#23445d;" edge="1" parent="1">
          <mxGeometry width="50" height="50" relative="1" as="geometry">
            <mxPoint x="471.56" y="866" as="sourcePoint" />
            <mxPoint x="741.56" y="866" as="targetPoint" />
          </mxGeometry>
        </mxCell>
        <mxCell id="5oYBcDJ9Xw2bT69MXBvV-35" value="&lt;div&gt;&lt;span style=&quot;font-size: 18px;&quot;&gt;Continuous Integration&lt;/span&gt;&lt;/div&gt;&lt;div&gt;&lt;span style=&quot;font-size: 18px;&quot;&gt;Continuous Deployment&lt;/span&gt;&lt;/div&gt;&lt;div&gt;&lt;span style=&quot;font-size: 18px;&quot;&gt;&lt;/span&gt;&lt;/div&gt;" style="edgeLabel;html=1;align=center;verticalAlign=middle;resizable=0;points=[];fontSize=18;fontStyle=0;labelBackgroundColor=none;" vertex="1" connectable="0" parent="5oYBcDJ9Xw2bT69MXBvV-31">
          <mxGeometry x="-0.1116" y="1" relative="1" as="geometry">
            <mxPoint x="-10" y="-27" as="offset" />
          </mxGeometry>
        </mxCell>
        <mxCell id="5oYBcDJ9Xw2bT69MXBvV-32" value="Jenkins" style="shape=image;verticalLabelPosition=bottom;labelBackgroundColor=default;verticalAlign=top;aspect=fixed;imageAspect=0;image=https://www.cyberark.com/wp-content/uploads/2018/09/jenkins-e1537966865729.png;fontStyle=1;fontSize=20;" vertex="1" parent="1">
          <mxGeometry x="714.56" y="816" width="165.56" height="100" as="geometry" />
        </mxCell>
        <mxCell id="5oYBcDJ9Xw2bT69MXBvV-53" value="" style="html=1;shadow=0;dashed=0;shape=mxgraph.bootstrap.rrect;rSize=5;strokeColor=#9E9E9E;html=1;whiteSpace=wrap;fillColor=#FFFFFF;fontColor=#000000;" vertex="1" parent="1">
          <mxGeometry x="864.56" y="790" width="184.44" height="160" as="geometry" />
        </mxCell>
        <mxCell id="5oYBcDJ9Xw2bT69MXBvV-54" value="Login AWS Credentials" style="strokeColor=inherit;fillColor=inherit;gradientColor=inherit;fontColor=inherit;html=1;shadow=0;dashed=0;shape=mxgraph.bootstrap.topButton;rSize=5;perimeter=none;whiteSpace=wrap;resizeWidth=1;align=left;spacing=10;" vertex="1" parent="5oYBcDJ9Xw2bT69MXBvV-53">
          <mxGeometry width="184.44" height="30" relative="1" as="geometry" />
        </mxCell>
        <mxCell id="5oYBcDJ9Xw2bT69MXBvV-55" value="Docker build with Commit SHA" style="strokeColor=inherit;fillColor=inherit;gradientColor=inherit;fontColor=inherit;html=1;shadow=0;dashed=0;perimeter=none;whiteSpace=wrap;resizeWidth=1;align=left;spacing=10;" vertex="1" parent="5oYBcDJ9Xw2bT69MXBvV-53">
          <mxGeometry width="184.44" height="30" relative="1" as="geometry">
            <mxPoint y="30" as="offset" />
          </mxGeometry>
        </mxCell>
        <mxCell id="5oYBcDJ9Xw2bT69MXBvV-56" value="Docker push to ECR" style="strokeColor=inherit;fillColor=inherit;gradientColor=inherit;fontColor=inherit;html=1;shadow=0;dashed=0;perimeter=none;whiteSpace=wrap;resizeWidth=1;align=left;spacing=10;" vertex="1" parent="5oYBcDJ9Xw2bT69MXBvV-53">
          <mxGeometry width="184.44" height="30" relative="1" as="geometry">
            <mxPoint y="60" as="offset" />
          </mxGeometry>
        </mxCell>
        <mxCell id="5oYBcDJ9Xw2bT69MXBvV-57" value="Clone ArgoCD repository" style="strokeColor=inherit;fillColor=inherit;gradientColor=inherit;fontColor=inherit;html=1;shadow=0;dashed=0;perimeter=none;whiteSpace=wrap;resizeWidth=1;align=left;spacing=10;" vertex="1" parent="5oYBcDJ9Xw2bT69MXBvV-53">
          <mxGeometry width="184.44" height="30" relative="1" as="geometry">
            <mxPoint y="90" as="offset" />
          </mxGeometry>
        </mxCell>
        <mxCell id="5oYBcDJ9Xw2bT69MXBvV-58" value="Modify manifest and apply changes" style="strokeColor=inherit;fillColor=inherit;gradientColor=inherit;fontColor=inherit;html=1;shadow=0;dashed=0;shape=mxgraph.bootstrap.bottomButton;rSize=5;perimeter=none;whiteSpace=wrap;resizeWidth=1;resizeHeight=0;align=left;spacing=10;" vertex="1" parent="5oYBcDJ9Xw2bT69MXBvV-53">
          <mxGeometry y="1" width="184.44" height="41" relative="1" as="geometry">
            <mxPoint y="-41" as="offset" />
          </mxGeometry>
        </mxCell>
        <mxCell id="5oYBcDJ9Xw2bT69MXBvV-67" value="&lt;div style=&quot;font-size: 20px;&quot;&gt;Elastic Container&lt;/div&gt;&lt;div style=&quot;font-size: 20px;&quot;&gt;Registry (ECR)&lt;br style=&quot;font-size: 20px;&quot;&gt;&lt;/div&gt;" style="sketch=0;points=[[0,0,0],[0.25,0,0],[0.5,0,0],[0.75,0,0],[1,0,0],[0,1,0],[0.25,1,0],[0.5,1,0],[0.75,1,0],[1,1,0],[0,0.25,0],[0,0.5,0],[0,0.75,0],[1,0.25,0],[1,0.5,0],[1,0.75,0]];outlineConnect=0;fontColor=#232F3E;gradientColor=#F78E04;gradientDirection=north;fillColor=#D05C17;strokeColor=#ffffff;dashed=0;verticalLabelPosition=bottom;verticalAlign=top;align=center;html=1;fontSize=20;fontStyle=1;aspect=fixed;shape=mxgraph.aws4.resourceIcon;resIcon=mxgraph.aws4.ecr;" vertex="1" parent="1">
          <mxGeometry x="577" y="191" width="78" height="78" as="geometry" />
        </mxCell>
        <mxCell id="5oYBcDJ9Xw2bT69MXBvV-68" value="" style="shape=flexArrow;endArrow=classic;html=1;rounded=0;endWidth=29.80368828078525;endSize=15.389320388349512;width=5.7281553398058245;fillColor=#bac8d3;strokeColor=#23445d;" edge="1" parent="1">
          <mxGeometry width="50" height="50" relative="1" as="geometry">
            <mxPoint x="1064.56" y="862.3300000000002" as="sourcePoint" />
            <mxPoint x="1249.56" y="862" as="targetPoint" />
          </mxGeometry>
        </mxCell>
        <mxCell id="5oYBcDJ9Xw2bT69MXBvV-71" value="Push Image" style="edgeLabel;html=1;align=center;verticalAlign=middle;resizable=0;points=[];fontSize=18;fontStyle=0;labelBackgroundColor=none;" vertex="1" connectable="0" parent="1">
          <mxGeometry x="1144.56" y="842.9999999999995" as="geometry" />
        </mxCell>
        <mxCell id="5oYBcDJ9Xw2bT69MXBvV-72" value="&lt;div&gt;GitHub&lt;/div&gt;&lt;div&gt;ArgoCD Repo&lt;br&gt;&lt;/div&gt;" style="dashed=0;outlineConnect=0;html=1;align=center;labelPosition=center;verticalLabelPosition=bottom;verticalAlign=top;shape=mxgraph.weblogos.github;fontSize=20;fontStyle=1" vertex="1" parent="1">
          <mxGeometry x="329" y="1230" width="130" height="125" as="geometry" />
        </mxCell>
        <mxCell id="5oYBcDJ9Xw2bT69MXBvV-73" value="&lt;span style=&quot;font-size: 20px;&quot;&gt;DevOps&lt;/span&gt; Engineer" style="points=[[0.35,0,0],[0.98,0.51,0],[1,0.71,0],[0.67,1,0],[0,0.795,0],[0,0.65,0]];verticalLabelPosition=bottom;sketch=0;html=1;verticalAlign=top;aspect=fixed;align=center;pointerEvents=1;shape=mxgraph.cisco19.user;fillColor=#001219;strokeColor=none;fontStyle=1;fontSize=20;" vertex="1" parent="1">
          <mxGeometry x="-155" y="1231" width="140" height="140" as="geometry" />
        </mxCell>
        <mxCell id="5oYBcDJ9Xw2bT69MXBvV-75" value="" style="shape=flexArrow;endArrow=classic;html=1;rounded=0;endWidth=29.80368828078525;endSize=15.246938775510202;width=5.3061224489795915;fillColor=#bac8d3;strokeColor=#23445d;" edge="1" parent="1">
          <mxGeometry width="50" height="50" relative="1" as="geometry">
            <mxPoint x="-1.4399999999999995" y="1310" as="sourcePoint" />
            <mxPoint x="310" y="1310" as="targetPoint" />
          </mxGeometry>
        </mxCell>
        <mxCell id="5oYBcDJ9Xw2bT69MXBvV-76" value="Commit Changes" style="text;html=1;align=center;verticalAlign=middle;resizable=0;points=[];autosize=1;strokeColor=none;fillColor=none;fontStyle=0;fontSize=18;" vertex="1" parent="1">
          <mxGeometry x="59" y="1267" width="160" height="40" as="geometry" />
        </mxCell>
        <mxCell id="5oYBcDJ9Xw2bT69MXBvV-77" value="" style="shape=flexArrow;endArrow=classic;html=1;rounded=0;endWidth=29.80368828078525;endSize=15.7301775147929;width=5.91715976331361;fillColor=#bac8d3;strokeColor=#23445d;" edge="1" parent="1">
          <mxGeometry width="50" height="50" relative="1" as="geometry">
            <mxPoint x="796" y="960" as="sourcePoint" />
            <mxPoint x="396" y="1210" as="targetPoint" />
            <Array as="points">
              <mxPoint x="796" y="1100" />
              <mxPoint x="396" y="1100" />
            </Array>
          </mxGeometry>
        </mxCell>
        <mxCell id="5oYBcDJ9Xw2bT69MXBvV-78" value="Commit Changes of Manifests" style="edgeLabel;html=1;align=center;verticalAlign=middle;resizable=0;points=[];fontSize=18;fontStyle=0;labelBackgroundColor=none;" vertex="1" connectable="0" parent="1">
          <mxGeometry x="591.5600000000004" y="1078" as="geometry" />
        </mxCell>
        <mxCell id="5oYBcDJ9Xw2bT69MXBvV-81" value="ArgoCD" style="shape=image;verticalLabelPosition=bottom;labelBackgroundColor=default;verticalAlign=top;aspect=fixed;imageAspect=0;image=https://raw.githubusercontent.com/oracle-devrel/devo.tutorials/main/assets/argo-icon-color-800.png;fontSize=26;fontStyle=1;fontFamily=Comic Sans MS;" vertex="1" parent="1">
          <mxGeometry x="734.56" y="1227.5" width="130" height="130" as="geometry" />
        </mxCell>
        <mxCell id="5oYBcDJ9Xw2bT69MXBvV-84" value="" style="html=1;shadow=0;dashed=0;shape=mxgraph.bootstrap.rrect;rSize=5;strokeColor=#9E9E9E;html=1;whiteSpace=wrap;fillColor=#FFFFFF;fontColor=#000000;fontSize=20;strokeWidth=2;" vertex="1" parent="1">
          <mxGeometry x="476" y="1241" width="80" height="90" as="geometry" />
        </mxCell>
        <mxCell id="5oYBcDJ9Xw2bT69MXBvV-85" value="&lt;b&gt;&lt;font style=&quot;font-size: 16px;&quot;&gt;dev&lt;/font&gt;&lt;/b&gt;" style="strokeColor=inherit;fillColor=inherit;gradientColor=inherit;fontColor=inherit;html=1;shadow=0;dashed=0;shape=mxgraph.bootstrap.topButton;rSize=5;perimeter=none;whiteSpace=wrap;resizeWidth=1;align=left;spacing=10;" vertex="1" parent="5oYBcDJ9Xw2bT69MXBvV-84">
          <mxGeometry width="80" height="30" relative="1" as="geometry" />
        </mxCell>
        <mxCell id="5oYBcDJ9Xw2bT69MXBvV-86" value="&lt;b&gt;&lt;font style=&quot;font-size: 16px;&quot;&gt;prod&lt;/font&gt;&lt;/b&gt;" style="strokeColor=inherit;fillColor=inherit;gradientColor=inherit;fontColor=inherit;html=1;shadow=0;dashed=0;perimeter=none;whiteSpace=wrap;resizeWidth=1;align=left;spacing=10;" vertex="1" parent="5oYBcDJ9Xw2bT69MXBvV-84">
          <mxGeometry width="80" height="30" relative="1" as="geometry">
            <mxPoint y="30" as="offset" />
          </mxGeometry>
        </mxCell>
        <mxCell id="5oYBcDJ9Xw2bT69MXBvV-87" value="&lt;b&gt;&lt;font style=&quot;font-size: 16px;&quot;&gt;staging&lt;/font&gt;&lt;/b&gt;" style="strokeColor=inherit;fillColor=inherit;gradientColor=inherit;fontColor=inherit;html=1;shadow=0;dashed=0;shape=mxgraph.bootstrap.bottomButton;rSize=5;perimeter=none;whiteSpace=wrap;resizeWidth=1;resizeHeight=0;align=left;spacing=10;" vertex="1" parent="5oYBcDJ9Xw2bT69MXBvV-84">
          <mxGeometry y="1" width="80" height="30" relative="1" as="geometry">
            <mxPoint y="-30" as="offset" />
          </mxGeometry>
        </mxCell>
        <mxCell id="5oYBcDJ9Xw2bT69MXBvV-88" style="edgeStyle=orthogonalEdgeStyle;rounded=0;orthogonalLoop=1;jettySize=auto;html=1;entryX=-0.005;entryY=0.227;entryDx=0;entryDy=0;entryPerimeter=0;exitX=1.003;exitY=0.539;exitDx=0;exitDy=0;exitPerimeter=0;" edge="1" parent="1" source="5oYBcDJ9Xw2bT69MXBvV-85" target="5oYBcDJ9Xw2bT69MXBvV-81">
          <mxGeometry relative="1" as="geometry">
            <mxPoint x="546" y="1256" as="sourcePoint" />
            <Array as="points">
              <mxPoint x="641" y="1257" />
            </Array>
          </mxGeometry>
        </mxCell>
        <mxCell id="5oYBcDJ9Xw2bT69MXBvV-89" style="edgeStyle=orthogonalEdgeStyle;rounded=0;orthogonalLoop=1;jettySize=auto;html=1;entryX=-0.005;entryY=0.227;entryDx=0;entryDy=0;entryPerimeter=0;exitX=1.008;exitY=0.485;exitDx=0;exitDy=0;exitPerimeter=0;" edge="1" parent="1" source="5oYBcDJ9Xw2bT69MXBvV-86">
          <mxGeometry relative="1" as="geometry">
            <mxPoint x="547.56" y="1285.71" as="sourcePoint" />
            <mxPoint x="734.56" y="1285.71" as="targetPoint" />
            <Array as="points">
              <mxPoint x="642" y="1286" />
            </Array>
          </mxGeometry>
        </mxCell>
        <mxCell id="5oYBcDJ9Xw2bT69MXBvV-90" style="edgeStyle=orthogonalEdgeStyle;rounded=0;orthogonalLoop=1;jettySize=auto;html=1;entryX=-0.005;entryY=0.227;entryDx=0;entryDy=0;entryPerimeter=0;exitX=1.007;exitY=0.529;exitDx=0;exitDy=0;exitPerimeter=0;" edge="1" parent="1" source="5oYBcDJ9Xw2bT69MXBvV-87">
          <mxGeometry relative="1" as="geometry">
            <mxPoint x="556" y="1316" as="sourcePoint" />
            <mxPoint x="734" y="1316" as="targetPoint" />
            <Array as="points">
              <mxPoint x="641" y="1317" />
            </Array>
          </mxGeometry>
        </mxCell>
        <mxCell id="5oYBcDJ9Xw2bT69MXBvV-93" value="&lt;div style=&quot;font-size: 20px;&quot;&gt;Elastic Kubernetes&amp;nbsp;&lt;/div&gt;&lt;div style=&quot;font-size: 20px;&quot;&gt;Service (EKS)&lt;/div&gt;" style="sketch=0;points=[[0,0,0],[0.25,0,0],[0.5,0,0],[0.75,0,0],[1,0,0],[0,1,0],[0.25,1,0],[0.5,1,0],[0.75,1,0],[1,1,0],[0,0.25,0],[0,0.5,0],[0,0.75,0],[1,0.25,0],[1,0.5,0],[1,0.75,0]];outlineConnect=0;fontColor=#232F3E;gradientColor=#F78E04;gradientDirection=north;fillColor=#D05C17;strokeColor=#ffffff;dashed=0;verticalLabelPosition=bottom;verticalAlign=top;align=center;html=1;fontSize=20;fontStyle=1;aspect=fixed;shape=mxgraph.aws4.resourceIcon;resIcon=mxgraph.aws4.eks_cloud;" vertex="1" parent="1">
          <mxGeometry x="1320.56" y="1236" width="78" height="78" as="geometry" />
        </mxCell>
        <mxCell id="5oYBcDJ9Xw2bT69MXBvV-94" value="" style="shape=flexArrow;endArrow=classic;html=1;rounded=0;endWidth=29.80368828078525;endSize=15.389320388349512;width=5.7281553398058245;fillColor=#bac8d3;strokeColor=#23445d;" edge="1" parent="1">
          <mxGeometry width="50" height="50" relative="1" as="geometry">
            <mxPoint x="876" y="1292" as="sourcePoint" />
            <mxPoint x="1246" y="1290" as="targetPoint" />
          </mxGeometry>
        </mxCell>
        <mxCell id="5oYBcDJ9Xw2bT69MXBvV-97" value="&lt;div style=&quot;font-size: 18px;&quot;&gt;Sync to Repository&lt;/div&gt;&lt;div style=&quot;font-size: 18px;&quot;&gt;for Each Environment&lt;/div&gt;" style="edgeLabel;html=1;align=center;verticalAlign=middle;resizable=0;points=[];fontSize=18;fontStyle=0;labelBackgroundColor=none;" vertex="1" connectable="0" parent="5oYBcDJ9Xw2bT69MXBvV-94">
          <mxGeometry x="-0.1042" relative="1" as="geometry">
            <mxPoint x="6" y="-28" as="offset" />
          </mxGeometry>
        </mxCell>
        <mxCell id="5oYBcDJ9Xw2bT69MXBvV-98" value="" style="html=1;shadow=0;dashed=0;shape=mxgraph.bootstrap.rrect;rSize=5;strokeColor=#9E9E9E;html=1;whiteSpace=wrap;fillColor=#FFFFFF;fontColor=#000000;fontSize=20;strokeWidth=2;" vertex="1" parent="1">
          <mxGeometry x="232" y="816" width="80" height="90" as="geometry" />
        </mxCell>
        <mxCell id="5oYBcDJ9Xw2bT69MXBvV-99" value="&lt;b&gt;&lt;font style=&quot;font-size: 16px;&quot;&gt;dev&lt;/font&gt;&lt;/b&gt;" style="strokeColor=inherit;fillColor=inherit;gradientColor=inherit;fontColor=inherit;html=1;shadow=0;dashed=0;shape=mxgraph.bootstrap.topButton;rSize=5;perimeter=none;whiteSpace=wrap;resizeWidth=1;align=left;spacing=10;" vertex="1" parent="5oYBcDJ9Xw2bT69MXBvV-98">
          <mxGeometry width="80" height="30" relative="1" as="geometry" />
        </mxCell>
        <mxCell id="5oYBcDJ9Xw2bT69MXBvV-100" value="&lt;b&gt;&lt;font style=&quot;font-size: 16px;&quot;&gt;prod&lt;/font&gt;&lt;/b&gt;" style="strokeColor=inherit;fillColor=inherit;gradientColor=inherit;fontColor=inherit;html=1;shadow=0;dashed=0;perimeter=none;whiteSpace=wrap;resizeWidth=1;align=left;spacing=10;" vertex="1" parent="5oYBcDJ9Xw2bT69MXBvV-98">
          <mxGeometry width="80" height="30" relative="1" as="geometry">
            <mxPoint y="30" as="offset" />
          </mxGeometry>
        </mxCell>
        <mxCell id="5oYBcDJ9Xw2bT69MXBvV-101" value="&lt;b&gt;&lt;font style=&quot;font-size: 16px;&quot;&gt;staging&lt;/font&gt;&lt;/b&gt;" style="strokeColor=inherit;fillColor=inherit;gradientColor=inherit;fontColor=inherit;html=1;shadow=0;dashed=0;shape=mxgraph.bootstrap.bottomButton;rSize=5;perimeter=none;whiteSpace=wrap;resizeWidth=1;resizeHeight=0;align=left;spacing=10;" vertex="1" parent="5oYBcDJ9Xw2bT69MXBvV-98">
          <mxGeometry y="1" width="80" height="30" relative="1" as="geometry">
            <mxPoint y="-30" as="offset" />
          </mxGeometry>
        </mxCell>
        <mxCell id="5oYBcDJ9Xw2bT69MXBvV-102" value="" style="editableCssRules=.*;html=1;shape=image;verticalLabelPosition=bottom;labelBackgroundColor=#ffffff;verticalAlign=top;aspect=fixed;imageAspect=0;image=data:image/svg+xml,PHN2ZyB4bWxucz0iaHR0cDovL3d3dy53My5vcmcvMjAwMC9zdmciIHhtbG5zOnY9Imh0dHBzOi8vdmVjdGEuaW8vbmFubyIgd2lkdGg9IjcwMi44NDYzMTM0NzY1NjI1IiBoZWlnaHQ9IjY4MS45NjcxMDIwNTA3ODEyIiB2aWV3Qm94PSIxMC4wMDEwMjYxNTM1NjQ0NTMgMTAuMDAwOTMzNjQ3MTU1NzYyIDcwMi44NDYzMTM0NzY1NjI1IDY4MS45NjcxMDIwNTA3ODEyIj4mI3hhOwk8c3R5bGUgdHlwZT0idGV4dC9jc3MiPiYjeGE7CS5zdDB7ZmlsbDojMzI2Y2U1O30mI3hhOwkuc3Qxe2ZpbGw6I2ZmZjt9JiN4YTsJPC9zdHlsZT4mI3hhOwk8cGF0aCBjbGFzcz0ic3QwIiBkPSJNMzU4Ljk4NyAxMC4wNmMtNi4yMTMuMzEzLTEyLjMwMSAxLjg1NC0xNy45MDYgNC41MzFMOTYuNzM3IDEzMS4zNDJjLTEyLjgxMSA2LjExOC0yMi4xMTYgMTcuNjg5LTI1LjI4MSAzMS40MzhsLTYwLjI4MSAyNjIuMjVjLTIuODEyIDEyLjIwNy0uNTI0IDI1LjAyNCA2LjM0NCAzNS41MzFhNDYuMzUgNDYuMzUgMCAwIDAgMi42NTYgMy42ODhsMTY5LjEyNSAyMTAuMjgxYzguODY4IDExLjAyMiAyMi4zMTMgMTcuNDQgMzYuNTMxIDE3LjQzOGwyNzEuMjE5LS4wNjJjMTQuMjEyLjAxIDI3LjY1Ny02LjM5NiAzNi41MzEtMTcuNDA2bDE2OS4wNjMtMjEwLjMxM2M4Ljg3My0xMS4wMjggMTIuMTk3LTI1LjQ2NCA5LjAzMS0zOS4yMTlsLTYwLjM3NS0yNjIuMjVjLTMuMTY1LTEzLjc0OC0xMi40Ny0yNS4zMTktMjUuMjgxLTMxLjQzN0wzODEuNjQzIDE0LjU5MmMtNy4wNS0zLjM2OC0xNC44NDEtNC45MjYtMjIuNjU2LTQuNTMxeiIvPiYjeGE7CTxwYXRoIGNsYXNzPSJzdDEgc3QyIiBkPSJNMzYxLjQwOCA5OS4zMDhjLTguMDc3LjAwMS0xNC42MjYgNy4yNzYtMTQuNjI1IDE2LjI1IDAgLjEzOC4wMjguMjY5LjAzMS40MDYtLjAxMiAxLjIxOS0uMDcxIDIuNjg4LS4wMzEgMy43NS4xOTMgNS4xNzYgMS4zMjEgOS4xMzcgMiAxMy45MDYgMS4yMyAxMC4yMDcgMi4yNjEgMTguNjY3IDEuNjI1IDI2LjUzMS0uNjE5IDIuOTY1LTIuODAzIDUuNjc3LTQuNzUgNy41NjNsLS4zNDQgNi4xODhjLTguNzc3LjcyNy0xNy42MTIgMi4wNTktMjYuNDM3IDQuMDYzLTM3Ljk3NSA4LjYyMi03MC42NyAyOC4xODMtOTUuNTYyIDU0LjU5NC0xLjYxNS0xLjEwMi00LjQ0MS0zLjEyOS01LjI4MS0zLjc1LTIuNjExLjM1My01LjI1IDEuMTU4LTguNjg3LS44NDQtNi41NDUtNC40MDYtMTIuNTA2LTEwLjQ4Ny0xOS43MTktMTcuODEyLTMuMzA1LTMuNTA0LTUuNjk4LTYuODQxLTkuNjI1LTEwLjIxOS0uODkyLS43NjctMi4yNTMtMS44MDUtMy4yNS0yLjU5NC0zLjA3LTIuNDQ4LTYuNjkxLTMuNzI0LTEwLjE4Ny0zLjg0NC00LjQ5Ni0uMTU0LTguODI0IDEuNjA0LTExLjY1NiA1LjE1Ni01LjAzNSA2LjMxNS0zLjQyMyAxNS45NjggMy41OTQgMjEuNTYzLjA3MS4wNTcuMTQ3LjEwMS4yMTkuMTU2Ljk2NC43ODIgMi4xNDUgMS43ODMgMy4wMzEgMi40MzggNC4xNjcgMy4wNzcgNy45NzMgNC42NTEgMTIuMTI1IDcuMDk0IDguNzQ3IDUuNDAyIDE1Ljk5OCA5Ljg4MSAyMS43NSAxNS4yODEgMi4yNDYgMi4zOTQgMi42MzkgNi42MTMgMi45MzggOC40MzhsNC42ODggNC4xODhjLTI1LjA5MyAzNy43NjQtMzYuNzA3IDg0LjQwOS0yOS44NDQgMTMxLjkzOGwtNi4xMjUgMS43ODFjLTEuNjE0IDIuMDg1LTMuODk1IDUuMzY1LTYuMjgxIDYuMzQ0LTcuNTI1IDIuMzctMTUuOTk0IDMuMjQxLTI2LjIxOSA0LjMxMy00LjguMzk5LTguOTQyLjE2MS0xNC4wMzEgMS4xMjUtMS4xMi4yMTItMi42ODEuNjE5LTMuOTA2LjkwNi0uMDQzLjAwOS0uMDgyLjAyMi0uMTI1LjAzMS0uMDY3LjAxNS0uMTU1LjA0OC0uMjE5LjA2My04LjYyIDIuMDgzLTE0LjE1OCAxMC4wMDYtMTIuMzc1IDE3LjgxM3MxMC4yMDMgMTIuNTU3IDE4Ljg3NSAxMC42ODhjLjA2My0uMDE0LjE1NC0uMDE3LjIxOS0uMDMxLjA5OC0uMDIyLjE4NC0uMDcuMjgxLS4wOTQgMS4yMDktLjI2NSAyLjcyNC0uNTYxIDMuNzgxLS44NDQgNS4wMDMtMS4zNCA4LjYyNy0zLjMwOCAxMy4xMjUtNS4wMzEgOS42NzctMy40NzEgMTcuNjkyLTYuMzcgMjUuNS03LjUgMy4yNjEtLjI1NSA2LjY5NyAyLjAxMiA4LjQwNiAyLjk2OWw2LjM3NS0xLjA5NGMxNC42NyA0NS40ODMgNDUuNDE0IDgyLjI0NSA4NC4zNDQgMTA1LjMxMmwtMi42NTYgNi4zNzVjLjk1NyAyLjQ3NSAyLjAxMyA1LjgyNSAxLjMgOC4yNjktMi44MzkgNy4zNjEtNy43MDEgMTUuMTMxLTEzLjIzOCAyMy43OTMtMi42ODEgNC4wMDItNS40MjUgNy4xMDgtNy44NDQgMTEuNjg4LS41NzkgMS4wOTYtMS4zMTYgMi43NzktMS44NzUgMy45MzgtMy43NTkgOC4wNDItMS4wMDIgMTcuMzA1IDYuMjE5IDIwLjc4MSA3LjI2NiAzLjQ5OCAxNi4yODQtLjE5MSAyMC4xODctOC4yNS4wMDYtLjAxMS4wMjYtLjAyLjAzMS0uMDMxcy0uMDA0LS4wMjMgMC0uMDMxYy41NTYtMS4xNDMgMS4zNDQtMi42NDQgMS44MTMtMy43MTkgMi4wNzItNC43NDcgMi43NjItOC44MTUgNC4yMTktMTMuNDA2IDMuODctOS43MiA1Ljk5Ni0xOS45MTkgMTEuMzIzLTI2LjI3NCAxLjQ1OS0xLjc0IDMuODM3LTIuNDA5IDYuMzAyLTMuMDdsMy4zMTMtNmMzMy45MzggMTMuMDI3IDcxLjkyNyAxNi41MjIgMTA5Ljg3NSA3LjkwNmExODkuNzcgMTg5Ljc3IDAgMCAwIDI1LjA5NC03LjU2MmwzLjEyNSA1LjYyNWMyLjUwNi44MTUgNS4yNCAxLjIzNiA3LjQ2OSA0LjUzMSAzLjk4NSA2LjgwOSA2LjcxMSAxNC44NjQgMTAuMDMxIDI0LjU5NCAxLjQ1NyA0LjU5MSAyLjE3OCA4LjY1OSA0LjI1IDEzLjQwNi40NzIgMS4wODIgMS4yNTYgMi42MDUgMS44MTMgMy43NSAzLjg5NSA4LjA4NSAxMi45NDIgMTEuNzg3IDIwLjIxOSA4LjI4MSA3LjIxOS0zLjQ3OCA5Ljk4LTEyLjc0IDYuMjE5LTIwLjc4MWwtMS45MDYtMy45MzdjLTIuNDE5LTQuNTgtNS4xNjMtNy42NTQtNy44NDQtMTEuNjU2LTUuNTM3LTguNjYyLTEwLjEzLTE1Ljg1OC0xMi45NjktMjMuMjE5LTEuMTg3LTMuNzk3LjItNi4xNTggMS4xMjUtOC42MjUtLjU1NC0uNjM1LTEuNzM5LTQuMjItMi40MzctNS45MDYgNDAuNDU3LTIzLjg4OCA3MC4yOTktNjIuMDIxIDg0LjMxMy0xMDYuMDYyIDEuODkyLjI5NyA1LjE4Mi44NzkgNi4yNSAxLjA5NCAyLjItMS40NTEgNC4yMjItMy4zNDQgOC4xODgtMy4wMzEgNy44MDggMS4xMjkgMTUuODIzIDQuMDMgMjUuNSA3LjUgNC40OTggMS43MjMgOC4xMjIgMy43MjMgMTMuMTI1IDUuMDYzIDEuMDU3LjI4MyAyLjU3Mi41NDcgMy43ODEuODEzLjA5Ny4wMjQuMTgzLjA3MS4yODEuMDk0LjA2NS4wMTUuMTU2LjAxNy4yMTkuMDMxIDguNjcyIDEuODY3IDE3LjA5NC0yLjg3OSAxOC44NzUtMTAuNjg3cy0zLjc1NC0xNS43MzItMTIuMzc1LTE3LjgxMmMtMS4yNTQtLjI4NS0zLjAzMi0uNzY5LTQuMjUtMS01LjA4OS0uOTY0LTkuMjMxLS43MjYtMTQuMDMxLTEuMTI1LTEwLjIyNS0xLjA3MS0xOC42OTMtMS45NDMtMjYuMjE5LTQuMzEyLTMuMDY4LTEuMTktNS4yNTEtNC44NDEtNi4zMTMtNi4zNDRsLTUuOTA2LTEuNzE5YzMuMDYyLTIyLjE1NCAyLjIzNy00NS4yMTEtMy4wNjItNjguMjgxLTUuMzQ4LTIzLjI4NS0xNC44LTQ0LjU4MS0yNy40MDYtNjMuMzQ0bDUuMTg4LTQuNjU2Yy4yMzctMi42MjQuMDMzLTUuMzc2IDIuNzUtOC4yODEgNS43NTEtNS40MDEgMTMuMDAzLTkuODc5IDIxLjc1LTE1LjI4MSA0LjE1Mi0yLjQ0MyA3Ljk5LTQuMDE3IDEyLjE1Ni03LjA5NC45NDItLjY5NiAyLjIyOS0xLjc5OCAzLjIxOS0yLjU5NCA3LjAxNS01LjU5NiA4LjYzMS0xNS4yNDggMy41OTQtMjEuNTYycy0xNC43OTctNi45MDktMjEuODEyLTEuMzEyYy0uOTk5Ljc5MS0yLjM1NCAxLjgyMy0zLjI1IDIuNTk0LTMuOTI3IDMuMzc4LTYuMzUxIDYuNzE0LTkuNjU2IDEwLjIxOS03LjIxMiA3LjMyNi0xMy4xNzQgMTMuNDM4LTE5LjcxOSAxNy44NDQtMi44MzYgMS42NTEtNi45OSAxLjA4LTguODc1Ljk2OWwtNS41NjIgMy45NjljLTMxLjcxOS0zMy4yNjEtNzQuOTA1LTU0LjUyNS0xMjEuNDA2LTU4LjY1NmwtLjM0NC02LjUzMWMtMS45MDQtMS44MjItNC4yMDMtMy4zNzctNC43ODEtNy4zMTItLjYzNi03Ljg2NC40MjYtMTYuMzI1IDEuNjU2LTI2LjUzMS42NzktNC43NjkgMS44MDctOC43MyAyLTEzLjkwNi4wNDQtMS4xNzctLjAyNi0yLjg4NC0uMDMxLTQuMTU2LS4wMDEtOC45NzQtNi41NDgtMTYuMjUxLTE0LjYyNS0xNi4yNXptLTE4LjMxMiAxMTMuNDM4bC00LjM0NCA3Ni43MTktLjMxMi4xNTZjLS4yOTEgNi44NjMtNS45NCAxMi4zNDQtMTIuODc1IDEyLjM0NGExMi44MiAxMi44MiAwIDAgMS03LjU5NC0yLjQ2OWwtLjEyNS4wNjMtNjIuOTA2LTQ0LjU5NGMxOS4zMzQtMTkuMDExIDQ0LjA2My0zMy4wNiA3Mi41NjItMzkuNTMxIDUuMjA2LTEuMTgyIDEwLjQxLTIuMDU5IDE1LjU5NC0yLjY4N3ptMzYuNjU2IDBjMzMuMjczIDQuMDkyIDY0LjA0NSAxOS4xNTkgODcuNjI1IDQyLjI1bC02Mi41IDQ0LjMxMy0uMjE5LS4wOTRhMTIuOTEgMTIuOTEgMCAwIDEtMTcuNjg3LTIuMzc1Yy0xLjc3MS0yLjIyMS0yLjcwMS00LjgzMi0yLjgxMi03LjQ2OWwtLjA2Mi0uMDMxek0yMzIuMTI2IDI4My42Mmw1Ny40MzcgNTEuMzc1LS4wNjIuMzEzYTEyLjg4IDEyLjg4IDAgMCAxIDEuNjI1IDE3Ljc1IDEyLjg5IDEyLjg5IDAgMCAxLTYuNjg3IDQuNDA2bC0uMDYyLjI1LTczLjYyNSAyMS4yNWMtMy43NDctMzQuMjY1IDQuMzI5LTY3LjU3NCAyMS4zNzUtOTUuMzQ0em0yNTguMTU2LjAzMWM4LjUzNCAxMy44MzMgMTQuOTk3IDI5LjI4MiAxOC44NDQgNDYuMDMxIDMuODAxIDE2LjU0OCA0Ljc1NSAzMy4wNjcgMy4xODggNDkuMDMxbC03NC0yMS4zMTItLjA2Mi0uMzEyYy02LjYyNy0xLjgxMS0xMC42OTktOC41NTItOS4xNTYtMTUuMzEyLjYzMi0yLjc3IDIuMTAyLTUuMTEzIDQuMDk0LTYuODQ0bC0uMDMxLS4xNTYgNTcuMTI1LTUxLjEyNXptLTE0MC42NTYgNTUuMzEzaDIzLjUzMWwxNC42MjUgMTguMjgxLTUuMjUgMjIuODEzLTIxLjEyNSAxMC4xNTYtMjEuMTg3LTEwLjE4Ny01LjI1LTIyLjgxMnptNzUuNDM4IDYyLjU2M2ExMi44MyAxMi44MyAwIDAgMSAyLjk2OS4yMTlsLjEyNS0uMTU2IDc2LjE1NiAxMi44NzVjLTExLjE0NiAzMS4zMTMtMzIuNDczIDU4LjQ0LTYwLjk2OSA3Ni41OTRsLTI5LjU2Mi03MS40MDYuMDk0LS4xMjVjLTIuNzE2LTYuMzEuMDAyLTEzLjcxIDYuMjUtMTYuNzE5IDEuNi0uNzcgMy4yNzEtMS4xOTcgNC45MzgtMS4yODF6bS0xMjcuOTA2LjMxM2ExMi45IDEyLjkgMCAwIDEgMTIuMzc1IDEwLjAzMSAxMi43NyAxMi43NyAwIDAgMS0uNzE5IDcuOTM4bC4yMTkuMjgxLTI5LjI1IDcwLjY4OGMtMjcuMzQ3LTE3LjU0OS00OS4xMjktNDMuODI0LTYwLjc4MS03Ni4wNjJsNzUuNS0xMi44MTIuMTI1LjE1NmMuODQ1LS4xNTUgMS43MDEtLjIzIDIuNTMxLS4yMTl6bTYzLjc4MSAzMC45NjljMi4wMjQtLjA3NCA0LjA3OS4zNDEgNi4wMzEgMS4yODEgMi41NiAxLjIzMyA0LjUzNyAzLjE3MyA1Ljc4MSA1LjVoLjI4MWwzNy4yMTkgNjcuMjVjLTQuODMgMS42MTktOS43OTYgMy4wMDMtMTQuODc1IDQuMTU2LTI4LjQ2NSA2LjQ2My01Ni44MzkgNC41MDUtODIuNTMxLTQuMjVsMzcuMTI1LTY3LjEyNWguMDYzYTEyLjkxIDEyLjkxIDAgMCAxIDEwLjkwNi02LjgxMnoiIHN0cm9rZT0ibm9uZSIgc3Ryb2tlLXdpZHRoPSIuMjUiLz4mI3hhOzwvc3ZnPg==;fontColor=default;" vertex="1" parent="1">
          <mxGeometry x="1453" y="1238.53" width="79.44" height="75.47" as="geometry" />
        </mxCell>
        <mxCell id="5oYBcDJ9Xw2bT69MXBvV-105" value="" style="editableCssRules=.*;html=1;shape=image;verticalLabelPosition=bottom;labelBackgroundColor=#ffffff;verticalAlign=top;aspect=fixed;imageAspect=0;image=data:image/svg+xml,PHN2ZyB4bWxucz0iaHR0cDovL3d3dy53My5vcmcvMjAwMC9zdmciIHhtbG5zOnY9Imh0dHBzOi8vdmVjdGEuaW8vbmFubyIgd2lkdGg9IjcwMi44NDYzMTM0NzY1NjI1IiBoZWlnaHQ9IjY4MS45NjcxMDIwNTA3ODEyIiB2aWV3Qm94PSIxMC4wMDEwMjYxNTM1NjQ0NTMgMTAuMDAwOTMzNjQ3MTU1NzYyIDcwMi44NDYzMTM0NzY1NjI1IDY4MS45NjcxMDIwNTA3ODEyIj4mI3hhOwk8c3R5bGUgdHlwZT0idGV4dC9jc3MiPiYjeGE7CS5zdDB7ZmlsbDojMzI2Y2U1O30mI3hhOwkuc3Qxe2ZpbGw6I2ZmZjt9JiN4YTsJPC9zdHlsZT4mI3hhOwk8cGF0aCBjbGFzcz0ic3QwIiBkPSJNMzU4Ljk4NyAxMC4wNmMtNi4yMTMuMzEzLTEyLjMwMSAxLjg1NC0xNy45MDYgNC41MzFMOTYuNzM3IDEzMS4zNDJjLTEyLjgxMSA2LjExOC0yMi4xMTYgMTcuNjg5LTI1LjI4MSAzMS40MzhsLTYwLjI4MSAyNjIuMjVjLTIuODEyIDEyLjIwNy0uNTI0IDI1LjAyNCA2LjM0NCAzNS41MzFhNDYuMzUgNDYuMzUgMCAwIDAgMi42NTYgMy42ODhsMTY5LjEyNSAyMTAuMjgxYzguODY4IDExLjAyMiAyMi4zMTMgMTcuNDQgMzYuNTMxIDE3LjQzOGwyNzEuMjE5LS4wNjJjMTQuMjEyLjAxIDI3LjY1Ny02LjM5NiAzNi41MzEtMTcuNDA2bDE2OS4wNjMtMjEwLjMxM2M4Ljg3My0xMS4wMjggMTIuMTk3LTI1LjQ2NCA5LjAzMS0zOS4yMTlsLTYwLjM3NS0yNjIuMjVjLTMuMTY1LTEzLjc0OC0xMi40Ny0yNS4zMTktMjUuMjgxLTMxLjQzN0wzODEuNjQzIDE0LjU5MmMtNy4wNS0zLjM2OC0xNC44NDEtNC45MjYtMjIuNjU2LTQuNTMxeiIvPiYjeGE7CTxwYXRoIGNsYXNzPSJzdDEgc3QyIiBkPSJNMzYxLjQwOCA5OS4zMDhjLTguMDc3LjAwMS0xNC42MjYgNy4yNzYtMTQuNjI1IDE2LjI1IDAgLjEzOC4wMjguMjY5LjAzMS40MDYtLjAxMiAxLjIxOS0uMDcxIDIuNjg4LS4wMzEgMy43NS4xOTMgNS4xNzYgMS4zMjEgOS4xMzcgMiAxMy45MDYgMS4yMyAxMC4yMDcgMi4yNjEgMTguNjY3IDEuNjI1IDI2LjUzMS0uNjE5IDIuOTY1LTIuODAzIDUuNjc3LTQuNzUgNy41NjNsLS4zNDQgNi4xODhjLTguNzc3LjcyNy0xNy42MTIgMi4wNTktMjYuNDM3IDQuMDYzLTM3Ljk3NSA4LjYyMi03MC42NyAyOC4xODMtOTUuNTYyIDU0LjU5NC0xLjYxNS0xLjEwMi00LjQ0MS0zLjEyOS01LjI4MS0zLjc1LTIuNjExLjM1My01LjI1IDEuMTU4LTguNjg3LS44NDQtNi41NDUtNC40MDYtMTIuNTA2LTEwLjQ4Ny0xOS43MTktMTcuODEyLTMuMzA1LTMuNTA0LTUuNjk4LTYuODQxLTkuNjI1LTEwLjIxOS0uODkyLS43NjctMi4yNTMtMS44MDUtMy4yNS0yLjU5NC0zLjA3LTIuNDQ4LTYuNjkxLTMuNzI0LTEwLjE4Ny0zLjg0NC00LjQ5Ni0uMTU0LTguODI0IDEuNjA0LTExLjY1NiA1LjE1Ni01LjAzNSA2LjMxNS0zLjQyMyAxNS45NjggMy41OTQgMjEuNTYzLjA3MS4wNTcuMTQ3LjEwMS4yMTkuMTU2Ljk2NC43ODIgMi4xNDUgMS43ODMgMy4wMzEgMi40MzggNC4xNjcgMy4wNzcgNy45NzMgNC42NTEgMTIuMTI1IDcuMDk0IDguNzQ3IDUuNDAyIDE1Ljk5OCA5Ljg4MSAyMS43NSAxNS4yODEgMi4yNDYgMi4zOTQgMi42MzkgNi42MTMgMi45MzggOC40MzhsNC42ODggNC4xODhjLTI1LjA5MyAzNy43NjQtMzYuNzA3IDg0LjQwOS0yOS44NDQgMTMxLjkzOGwtNi4xMjUgMS43ODFjLTEuNjE0IDIuMDg1LTMuODk1IDUuMzY1LTYuMjgxIDYuMzQ0LTcuNTI1IDIuMzctMTUuOTk0IDMuMjQxLTI2LjIxOSA0LjMxMy00LjguMzk5LTguOTQyLjE2MS0xNC4wMzEgMS4xMjUtMS4xMi4yMTItMi42ODEuNjE5LTMuOTA2LjkwNi0uMDQzLjAwOS0uMDgyLjAyMi0uMTI1LjAzMS0uMDY3LjAxNS0uMTU1LjA0OC0uMjE5LjA2My04LjYyIDIuMDgzLTE0LjE1OCAxMC4wMDYtMTIuMzc1IDE3LjgxM3MxMC4yMDMgMTIuNTU3IDE4Ljg3NSAxMC42ODhjLjA2My0uMDE0LjE1NC0uMDE3LjIxOS0uMDMxLjA5OC0uMDIyLjE4NC0uMDcuMjgxLS4wOTQgMS4yMDktLjI2NSAyLjcyNC0uNTYxIDMuNzgxLS44NDQgNS4wMDMtMS4zNCA4LjYyNy0zLjMwOCAxMy4xMjUtNS4wMzEgOS42NzctMy40NzEgMTcuNjkyLTYuMzcgMjUuNS03LjUgMy4yNjEtLjI1NSA2LjY5NyAyLjAxMiA4LjQwNiAyLjk2OWw2LjM3NS0xLjA5NGMxNC42NyA0NS40ODMgNDUuNDE0IDgyLjI0NSA4NC4zNDQgMTA1LjMxMmwtMi42NTYgNi4zNzVjLjk1NyAyLjQ3NSAyLjAxMyA1LjgyNSAxLjMgOC4yNjktMi44MzkgNy4zNjEtNy43MDEgMTUuMTMxLTEzLjIzOCAyMy43OTMtMi42ODEgNC4wMDItNS40MjUgNy4xMDgtNy44NDQgMTEuNjg4LS41NzkgMS4wOTYtMS4zMTYgMi43NzktMS44NzUgMy45MzgtMy43NTkgOC4wNDItMS4wMDIgMTcuMzA1IDYuMjE5IDIwLjc4MSA3LjI2NiAzLjQ5OCAxNi4yODQtLjE5MSAyMC4xODctOC4yNS4wMDYtLjAxMS4wMjYtLjAyLjAzMS0uMDMxcy0uMDA0LS4wMjMgMC0uMDMxYy41NTYtMS4xNDMgMS4zNDQtMi42NDQgMS44MTMtMy43MTkgMi4wNzItNC43NDcgMi43NjItOC44MTUgNC4yMTktMTMuNDA2IDMuODctOS43MiA1Ljk5Ni0xOS45MTkgMTEuMzIzLTI2LjI3NCAxLjQ1OS0xLjc0IDMuODM3LTIuNDA5IDYuMzAyLTMuMDdsMy4zMTMtNmMzMy45MzggMTMuMDI3IDcxLjkyNyAxNi41MjIgMTA5Ljg3NSA3LjkwNmExODkuNzcgMTg5Ljc3IDAgMCAwIDI1LjA5NC03LjU2MmwzLjEyNSA1LjYyNWMyLjUwNi44MTUgNS4yNCAxLjIzNiA3LjQ2OSA0LjUzMSAzLjk4NSA2LjgwOSA2LjcxMSAxNC44NjQgMTAuMDMxIDI0LjU5NCAxLjQ1NyA0LjU5MSAyLjE3OCA4LjY1OSA0LjI1IDEzLjQwNi40NzIgMS4wODIgMS4yNTYgMi42MDUgMS44MTMgMy43NSAzLjg5NSA4LjA4NSAxMi45NDIgMTEuNzg3IDIwLjIxOSA4LjI4MSA3LjIxOS0zLjQ3OCA5Ljk4LTEyLjc0IDYuMjE5LTIwLjc4MWwtMS45MDYtMy45MzdjLTIuNDE5LTQuNTgtNS4xNjMtNy42NTQtNy44NDQtMTEuNjU2LTUuNTM3LTguNjYyLTEwLjEzLTE1Ljg1OC0xMi45NjktMjMuMjE5LTEuMTg3LTMuNzk3LjItNi4xNTggMS4xMjUtOC42MjUtLjU1NC0uNjM1LTEuNzM5LTQuMjItMi40MzctNS45MDYgNDAuNDU3LTIzLjg4OCA3MC4yOTktNjIuMDIxIDg0LjMxMy0xMDYuMDYyIDEuODkyLjI5NyA1LjE4Mi44NzkgNi4yNSAxLjA5NCAyLjItMS40NTEgNC4yMjItMy4zNDQgOC4xODgtMy4wMzEgNy44MDggMS4xMjkgMTUuODIzIDQuMDMgMjUuNSA3LjUgNC40OTggMS43MjMgOC4xMjIgMy43MjMgMTMuMTI1IDUuMDYzIDEuMDU3LjI4MyAyLjU3Mi41NDcgMy43ODEuODEzLjA5Ny4wMjQuMTgzLjA3MS4yODEuMDk0LjA2NS4wMTUuMTU2LjAxNy4yMTkuMDMxIDguNjcyIDEuODY3IDE3LjA5NC0yLjg3OSAxOC44NzUtMTAuNjg3cy0zLjc1NC0xNS43MzItMTIuMzc1LTE3LjgxMmMtMS4yNTQtLjI4NS0zLjAzMi0uNzY5LTQuMjUtMS01LjA4OS0uOTY0LTkuMjMxLS43MjYtMTQuMDMxLTEuMTI1LTEwLjIyNS0xLjA3MS0xOC42OTMtMS45NDMtMjYuMjE5LTQuMzEyLTMuMDY4LTEuMTktNS4yNTEtNC44NDEtNi4zMTMtNi4zNDRsLTUuOTA2LTEuNzE5YzMuMDYyLTIyLjE1NCAyLjIzNy00NS4yMTEtMy4wNjItNjguMjgxLTUuMzQ4LTIzLjI4NS0xNC44LTQ0LjU4MS0yNy40MDYtNjMuMzQ0bDUuMTg4LTQuNjU2Yy4yMzctMi42MjQuMDMzLTUuMzc2IDIuNzUtOC4yODEgNS43NTEtNS40MDEgMTMuMDAzLTkuODc5IDIxLjc1LTE1LjI4MSA0LjE1Mi0yLjQ0MyA3Ljk5LTQuMDE3IDEyLjE1Ni03LjA5NC45NDItLjY5NiAyLjIyOS0xLjc5OCAzLjIxOS0yLjU5NCA3LjAxNS01LjU5NiA4LjYzMS0xNS4yNDggMy41OTQtMjEuNTYycy0xNC43OTctNi45MDktMjEuODEyLTEuMzEyYy0uOTk5Ljc5MS0yLjM1NCAxLjgyMy0zLjI1IDIuNTk0LTMuOTI3IDMuMzc4LTYuMzUxIDYuNzE0LTkuNjU2IDEwLjIxOS03LjIxMiA3LjMyNi0xMy4xNzQgMTMuNDM4LTE5LjcxOSAxNy44NDQtMi44MzYgMS42NTEtNi45OSAxLjA4LTguODc1Ljk2OWwtNS41NjIgMy45NjljLTMxLjcxOS0zMy4yNjEtNzQuOTA1LTU0LjUyNS0xMjEuNDA2LTU4LjY1NmwtLjM0NC02LjUzMWMtMS45MDQtMS44MjItNC4yMDMtMy4zNzctNC43ODEtNy4zMTItLjYzNi03Ljg2NC40MjYtMTYuMzI1IDEuNjU2LTI2LjUzMS42NzktNC43NjkgMS44MDctOC43MyAyLTEzLjkwNi4wNDQtMS4xNzctLjAyNi0yLjg4NC0uMDMxLTQuMTU2LS4wMDEtOC45NzQtNi41NDgtMTYuMjUxLTE0LjYyNS0xNi4yNXptLTE4LjMxMiAxMTMuNDM4bC00LjM0NCA3Ni43MTktLjMxMi4xNTZjLS4yOTEgNi44NjMtNS45NCAxMi4zNDQtMTIuODc1IDEyLjM0NGExMi44MiAxMi44MiAwIDAgMS03LjU5NC0yLjQ2OWwtLjEyNS4wNjMtNjIuOTA2LTQ0LjU5NGMxOS4zMzQtMTkuMDExIDQ0LjA2My0zMy4wNiA3Mi41NjItMzkuNTMxIDUuMjA2LTEuMTgyIDEwLjQxLTIuMDU5IDE1LjU5NC0yLjY4N3ptMzYuNjU2IDBjMzMuMjczIDQuMDkyIDY0LjA0NSAxOS4xNTkgODcuNjI1IDQyLjI1bC02Mi41IDQ0LjMxMy0uMjE5LS4wOTRhMTIuOTEgMTIuOTEgMCAwIDEtMTcuNjg3LTIuMzc1Yy0xLjc3MS0yLjIyMS0yLjcwMS00LjgzMi0yLjgxMi03LjQ2OWwtLjA2Mi0uMDMxek0yMzIuMTI2IDI4My42Mmw1Ny40MzcgNTEuMzc1LS4wNjIuMzEzYTEyLjg4IDEyLjg4IDAgMCAxIDEuNjI1IDE3Ljc1IDEyLjg5IDEyLjg5IDAgMCAxLTYuNjg3IDQuNDA2bC0uMDYyLjI1LTczLjYyNSAyMS4yNWMtMy43NDctMzQuMjY1IDQuMzI5LTY3LjU3NCAyMS4zNzUtOTUuMzQ0em0yNTguMTU2LjAzMWM4LjUzNCAxMy44MzMgMTQuOTk3IDI5LjI4MiAxOC44NDQgNDYuMDMxIDMuODAxIDE2LjU0OCA0Ljc1NSAzMy4wNjcgMy4xODggNDkuMDMxbC03NC0yMS4zMTItLjA2Mi0uMzEyYy02LjYyNy0xLjgxMS0xMC42OTktOC41NTItOS4xNTYtMTUuMzEyLjYzMi0yLjc3IDIuMTAyLTUuMTEzIDQuMDk0LTYuODQ0bC0uMDMxLS4xNTYgNTcuMTI1LTUxLjEyNXptLTE0MC42NTYgNTUuMzEzaDIzLjUzMWwxNC42MjUgMTguMjgxLTUuMjUgMjIuODEzLTIxLjEyNSAxMC4xNTYtMjEuMTg3LTEwLjE4Ny01LjI1LTIyLjgxMnptNzUuNDM4IDYyLjU2M2ExMi44MyAxMi44MyAwIDAgMSAyLjk2OS4yMTlsLjEyNS0uMTU2IDc2LjE1NiAxMi44NzVjLTExLjE0NiAzMS4zMTMtMzIuNDczIDU4LjQ0LTYwLjk2OSA3Ni41OTRsLTI5LjU2Mi03MS40MDYuMDk0LS4xMjVjLTIuNzE2LTYuMzEuMDAyLTEzLjcxIDYuMjUtMTYuNzE5IDEuNi0uNzcgMy4yNzEtMS4xOTcgNC45MzgtMS4yODF6bS0xMjcuOTA2LjMxM2ExMi45IDEyLjkgMCAwIDEgMTIuMzc1IDEwLjAzMSAxMi43NyAxMi43NyAwIDAgMS0uNzE5IDcuOTM4bC4yMTkuMjgxLTI5LjI1IDcwLjY4OGMtMjcuMzQ3LTE3LjU0OS00OS4xMjktNDMuODI0LTYwLjc4MS03Ni4wNjJsNzUuNS0xMi44MTIuMTI1LjE1NmMuODQ1LS4xNTUgMS43MDEtLjIzIDIuNTMxLS4yMTl6bTYzLjc4MSAzMC45NjljMi4wMjQtLjA3NCA0LjA3OS4zNDEgNi4wMzEgMS4yODEgMi41NiAxLjIzMyA0LjUzNyAzLjE3MyA1Ljc4MSA1LjVoLjI4MWwzNy4yMTkgNjcuMjVjLTQuODMgMS42MTktOS43OTYgMy4wMDMtMTQuODc1IDQuMTU2LTI4LjQ2NSA2LjQ2My01Ni44MzkgNC41MDUtODIuNTMxLTQuMjVsMzcuMTI1LTY3LjEyNWguMDYzYTEyLjkxIDEyLjkxIDAgMCAxIDEwLjkwNi02LjgxMnoiIHN0cm9rZT0ibm9uZSIgc3Ryb2tlLXdpZHRoPSIuMjUiLz4mI3hhOzwvc3ZnPg==;fontColor=default;" vertex="1" parent="1">
          <mxGeometry x="713.56" y="-9.470000000000027" width="79.44" height="75.47" as="geometry" />
        </mxCell>
        <mxCell id="5oYBcDJ9Xw2bT69MXBvV-106" style="edgeStyle=orthogonalEdgeStyle;rounded=0;orthogonalLoop=1;jettySize=auto;html=1;exitX=0.5;exitY=1;exitDx=0;exitDy=0;" edge="1" parent="1" source="5oYBcDJ9Xw2bT69MXBvV-104" target="5oYBcDJ9Xw2bT69MXBvV-104">
          <mxGeometry relative="1" as="geometry" />
        </mxCell>
      </root>
    </mxGraphModel>
  </diagram>
</mxfile>
